<?xml version="1.0" encoding="UTF-8"?>
<svg width="256px" height="256px" viewBox="0 0 256 256" version="1.1" xmlns="http://www.w3.org/2000/svg" xmlns:xlink="http://www.w3.org/1999/xlink">
    <!-- Generator: Sketch 50.2 (55047) - http://www.bohemiancoding.com/sketch -->
    <title>map</title>
    <desc>Created with Sketch.</desc>
    <defs></defs>
    <g id="map" stroke="none" stroke-width="1" fill="none" fill-rule="evenodd">
        <g id="0326-map" transform="translate(10.000000, 10.000000)" fill="#000000" fill-rule="nonzero">
            <path d="M81.125,29.5 C52.61325,29.5 29.5,52.61325 29.5,81.125 C29.5,92.0953125 32.9256875,102.26175 38.7593125,110.625 L81.125,162.25 L123.490688,110.625 C129.324313,102.26175 132.75,92.0953125 132.75,81.125 C132.75,52.61325 109.63675,29.5 81.125,29.5 Z M81.125,103.25 C68.904625,103.25 59,93.345375 59,81.125 C59,68.904625 68.904625,59 81.125,59 C93.345375,59 103.25,68.904625 103.25,81.125 C103.25,93.345375 93.345375,103.25 81.125,103.25 Z" id="Shape"></path>
            <path d="M228.625,0 L7.375,0 C3.3003125,0 0,3.3003125 0,7.375 L0,228.625 C0,232.699687 3.3003125,236 7.375,236 L228.625,236 C232.699687,236 236,232.699687 236,228.625 L236,7.375 C236,3.3003125 232.699687,0 228.625,0 Z M14.75,221.25 L14.75,206.5 L132.75,206.5 L132.75,177 L14.75,177 L14.75,14.75 L147.5,14.75 L147.5,221.25 L14.75,221.25 Z M221.25,221.25 L177,221.25 L177,206.5 L221.25,206.5 L221.25,221.25 Z M221.25,177 L177,177 L177,14.75 L221.25,14.75 L221.25,177 Z" id="Shape"></path>
        </g>
    </g>
</svg>