<?xml version="1.0" encoding="UTF-8"?>
<svg width="256px" height="256px" viewBox="0 0 256 256" version="1.1" xmlns="http://www.w3.org/2000/svg" xmlns:xlink="http://www.w3.org/1999/xlink">
    <!-- Generator: Sketch 50.2 (55047) - http://www.bohemiancoding.com/sketch -->
    <title>zoom-in</title>
    <desc>Created with Sketch.</desc>
    <defs></defs>
    <g id="zoom-in" stroke="none" stroke-width="1" fill="none" fill-rule="evenodd">
        <path d="M100.138462,56.2 L85.6153846,56.2 L85.6153846,85.2461538 L56.5692308,85.2461538 L56.5692308,99.7692308 L85.6153846,99.7692308 L85.6153846,128.815385 L100.138462,128.815385 L100.138462,99.7692308 L129.184615,99.7692308 L129.184615,85.2461538 L100.138462,85.2461538 L100.138462,56.2 Z M157.671631,139.217538 C167.158831,126.081415 172.753846,109.946277 172.753846,92.5040615 C172.753846,48.3902154 136.990769,12.6271385 92.8769231,12.6271385 C48.7630769,12.6271385 13,48.3902154 13,92.5040615 C13,136.617908 48.7630769,172.380985 92.8769231,172.380985 C110.319138,172.380985 126.450646,166.785969 139.586769,157.298769 L216.323077,244.996369 L245.369231,215.950215 L157.671631,139.213908 L157.671631,139.217538 Z M92.8769231,150.6 C60.7954462,150.6 34.7846154,124.5928 34.7846154,92.5076923 C34.7846154,60.4225846 60.7918154,34.4153846 92.8769231,34.4153846 C124.962031,34.4153846 150.969231,60.4225846 150.969231,92.5076923 C150.969231,124.5928 124.962031,150.6 92.8769231,150.6 Z" id="Shape" fill="#000000" fill-rule="nonzero"></path>
    </g>
</svg>