<?xml version="1.0" encoding="UTF-8"?>
<svg xmlns="http://www.w3.org/2000/svg" xmlns:xlink="http://www.w3.org/1999/xlink" width="256px" height="256px" viewBox="0 0 256 256" version="1.1">
  <svg width="256px" height="256px" viewBox="0 0 256 256" id="map">
    <g>
      <g transform="translate(10.000000, 10.000000)">
        <path d="M81.125,29.5 C52.61325,29.5 29.5,52.61325 29.5,81.125 C29.5,92.0953125 32.9256875,102.26175 38.7593125,110.625 L81.125,162.25 L123.490688,110.625 C129.324313,102.26175 132.75,92.0953125 132.75,81.125 C132.75,52.61325 109.63675,29.5 81.125,29.5 Z M81.125,103.25 C68.904625,103.25 59,93.345375 59,81.125 C59,68.904625 68.904625,59 81.125,59 C93.345375,59 103.25,68.904625 103.25,81.125 C103.25,93.345375 93.345375,103.25 81.125,103.25 Z"/>
        <path d="M228.625,0 L7.375,0 C3.3003125,0 0,3.3003125 0,7.375 L0,228.625 C0,232.699687 3.3003125,236 7.375,236 L228.625,236 C232.699687,236 236,232.699687 236,228.625 L236,7.375 C236,3.3003125 232.699687,0 228.625,0 Z M14.75,221.25 L14.75,206.5 L132.75,206.5 L132.75,177 L14.75,177 L14.75,14.75 L147.5,14.75 L147.5,221.25 L14.75,221.25 Z M221.25,221.25 L177,221.25 L177,206.5 L221.25,206.5 L221.25,221.25 Z M221.25,177 L177,177 L177,14.75 L221.25,14.75 L221.25,177 Z"/>
      </g>
    </g>
  </svg>
  <svg width="256px" height="256px" viewBox="0 0 256 256" id="zoom-in">
    <g>
      <path d="M100.138462,56.2 L85.6153846,56.2 L85.6153846,85.2461538 L56.5692308,85.2461538 L56.5692308,99.7692308 L85.6153846,99.7692308 L85.6153846,128.815385 L100.138462,128.815385 L100.138462,99.7692308 L129.184615,99.7692308 L129.184615,85.2461538 L100.138462,85.2461538 L100.138462,56.2 Z M157.671631,139.217538 C167.158831,126.081415 172.753846,109.946277 172.753846,92.5040615 C172.753846,48.3902154 136.990769,12.6271385 92.8769231,12.6271385 C48.7630769,12.6271385 13,48.3902154 13,92.5040615 C13,136.617908 48.7630769,172.380985 92.8769231,172.380985 C110.319138,172.380985 126.450646,166.785969 139.586769,157.298769 L216.323077,244.996369 L245.369231,215.950215 L157.671631,139.213908 L157.671631,139.217538 Z M92.8769231,150.6 C60.7954462,150.6 34.7846154,124.5928 34.7846154,92.5076923 C34.7846154,60.4225846 60.7918154,34.4153846 92.8769231,34.4153846 C124.962031,34.4153846 150.969231,60.4225846 150.969231,92.5076923 C150.969231,124.5928 124.962031,150.6 92.8769231,150.6 Z"/>
    </g>
  </svg>
</svg>

